<svg width="456" height="325" viewBox="0 0 456 325" fill="none" xmlns="http://www.w3.org/2000/svg">
<rect x="348" y="35" width="11" height="2" rx="1" fill="#818181"/>
<path d="M0 4C0 1.79086 1.79086 0 4 0H362C364.209 0 366 1.79086 366 4V21H0V4Z" fill="#AEC4DB"/>
<path d="M8 11C8 9.3431 9.44259 8 11.2222 8C13.0019 8 14.4444 9.3431 14.4444 11C14.4444 12.6569 13.0019 14 11.2222 14C9.44259 14 8 12.6569 8 11Z" fill="#E7EFF5"/>
<path d="M19.2778 11C19.2778 9.3431 20.7204 8 22.5001 8C24.2797 8 25.7223 9.3431 25.7223 11C25.7223 12.6569 24.2797 14 22.5001 14C20.7204 14 19.2778 12.6569 19.2778 11Z" fill="#E7EFF5"/>
<path d="M30.5557 11C30.5557 9.3431 31.9983 8 33.7779 8C35.5575 8 37.0001 9.3431 37.0001 11C37.0001 12.6569 35.5575 14 33.7779 14C31.9983 14 30.5557 12.6569 30.5557 11Z" fill="#E7EFF5"/>
<path d="M64.123 5C62.2876 5 60.6877 6.24921 60.2424 8.02985L56.9016 18.2435C56.3638 19.8878 54.8298 21 53.0998 21H0V42H366V21H148.123C146.288 21 144.688 19.7508 144.243 17.9701L143.379 14.5149L141.758 8.02985C141.312 6.24921 139.712 5 137.877 5H64.123Z" fill="#E7EFF5"/>
<rect width="5.96758" height="1.10347" rx="0.551736" transform="matrix(0.707105 0.707108 -0.707105 0.707108 133.78 12)" fill="#AEC4DB"/>
<rect width="5.96758" height="1.10347" rx="0.551736" transform="matrix(-0.707105 0.707108 -0.707105 -0.707108 138 12.7803)" fill="#AEC4DB"/>
<rect x="39" y="24" width="209" height="15" rx="2" fill="white"/>
<rect x="255" y="24" width="87" height="15" rx="2" fill="white"/>
<path d="M46.2981 27.4198C43.8675 27.7577 42 29.7426 42 32.1754C42 34.8428 44.2385 37 46.9969 37C49.7622 37 52 34.8428 52 32.1754C52 31.9345 51.9575 31.6999 51.9213 31.4657H50.5105C50.5529 31.6932 50.5815 31.9274 50.5815 32.162C50.5815 34.0708 48.9778 35.6148 47.0038 35.6148C45.0292 35.6148 43.4255 34.0708 43.4255 32.162C43.4255 30.4938 44.6589 29.0948 46.2981 28.7778V30.101L49.1559 28.0401L46.2981 26V27.4198Z" fill="#AEC4DB"/>
<rect width="9.07811" height="1.81562" rx="0.907811" transform="matrix(-0.641266 0.605852 -0.641266 -0.605852 32.377 31.5)" fill="#AEC4DB"/>
<rect width="9.07809" height="1.81562" rx="0.907809" transform="matrix(-0.641267 -0.605851 0.641267 -0.605851 31.2129 32.6)" fill="#AEC4DB"/>
<rect width="8.23281" height="1.55562" rx="0.77781" transform="matrix(1 -2.95625e-09 -3.31199e-09 -1 22.7527 32.3235)" fill="#AEC4DB"/>
<rect width="9.07811" height="1.81562" rx="0.907811" transform="matrix(0.641266 0.605852 0.641266 -0.605852 8.62256 31.5)" fill="#AEC4DB"/>
<rect width="9.07809" height="1.81562" rx="0.907809" transform="matrix(0.641267 -0.605851 -0.641267 -0.605851 9.78662 32.6)" fill="#AEC4DB"/>
<rect x="18.2473" y="32.3235" width="8.23281" height="1.55562" rx="0.77781" transform="rotate(-180 18.2473 32.3235)" fill="#AEC4DB"/>
<path fill-rule="evenodd" clip-rule="evenodd" d="M266.035 33.1659C267.216 31.4247 267.036 29.0355 265.493 27.4926C263.745 25.7451 260.912 25.7451 259.164 27.4926C257.417 29.2402 257.417 32.0735 259.164 33.8211C260.707 35.3639 263.096 35.5446 264.837 34.3633L266.668 36.1942C266.999 36.5249 267.535 36.5249 267.866 36.1942C268.196 35.8635 268.196 35.3274 267.866 34.9967L266.035 33.1659ZM264.576 28.4088C265.818 29.6504 265.818 31.6634 264.576 32.9049C263.335 34.1465 261.322 34.1465 260.08 32.9049C258.839 31.6634 258.839 29.6504 260.08 28.4088C261.322 27.1672 263.335 27.1672 264.576 28.4088Z" fill="#AEC4DB"/>
<rect x="348" y="27" width="11" height="2" rx="1" fill="#AEC4DB"/>
<rect x="348" y="31" width="11" height="2" rx="1" fill="#AEC4DB"/>
<rect x="348" y="35" width="11" height="2" rx="1" fill="#AEC4DB"/>
<path d="M61.0742 34H60.0317V31.7681C60.0317 31.2166 59.8267 30.9409 59.4165 30.9409C59.1248 30.9409 58.9141 31.04 58.7842 31.2383C58.6543 31.4365 58.5894 31.7578 58.5894 32.2021V34H57.5469V28.6816H58.5894V29.7651C58.5894 29.8494 58.5814 30.0477 58.5654 30.3599L58.5415 30.6675H58.5962C58.8286 30.2938 59.1978 30.1069 59.7036 30.1069C60.1525 30.1069 60.4932 30.2277 60.7256 30.4692C60.958 30.7108 61.0742 31.0571 61.0742 31.5083V34Z" fill="#AEC4DB"/>
<path d="M63.7573 33.2378C63.9396 33.2378 64.1584 33.1979 64.4136 33.1182V33.894C64.1538 34.0103 63.8348 34.0684 63.4565 34.0684C63.0396 34.0684 62.7354 33.9635 62.5439 33.7539C62.3548 33.542 62.2603 33.2253 62.2603 32.8037V30.9614H61.7612V30.5205L62.3354 30.1719L62.6362 29.3652H63.3027V30.1787H64.3726V30.9614H63.3027V32.8037C63.3027 32.9518 63.3438 33.0612 63.4258 33.1318C63.5101 33.2025 63.6206 33.2378 63.7573 33.2378Z" fill="#AEC4DB"/>
<path d="M66.7993 33.2378C66.9816 33.2378 67.2004 33.1979 67.4556 33.1182V33.894C67.1958 34.0103 66.8768 34.0684 66.4985 34.0684C66.0815 34.0684 65.7773 33.9635 65.5859 33.7539C65.3968 33.542 65.3022 33.2253 65.3022 32.8037V30.9614H64.8032V30.5205L65.3774 30.1719L65.6782 29.3652H66.3447V30.1787H67.4146V30.9614H66.3447V32.8037C66.3447 32.9518 66.3857 33.0612 66.4678 33.1318C66.5521 33.2025 66.6626 33.2378 66.7993 33.2378Z" fill="#AEC4DB"/>
<path d="M70.3301 34.0684C69.8812 34.0684 69.5291 33.9054 69.2739 33.5796H69.2192C69.2557 33.8986 69.2739 34.0832 69.2739 34.1333V35.6816H68.2314V30.1787H69.0791L69.2261 30.6743H69.2739C69.5177 30.2961 69.8789 30.1069 70.3574 30.1069C70.8086 30.1069 71.1618 30.2812 71.417 30.6299C71.6722 30.9785 71.7998 31.4627 71.7998 32.0825C71.7998 32.4904 71.7394 32.8447 71.6187 33.1455C71.5002 33.4463 71.3304 33.6753 71.1094 33.8325C70.8883 33.9897 70.6286 34.0684 70.3301 34.0684ZM70.0225 30.9409C69.765 30.9409 69.577 31.0207 69.4585 31.1802C69.34 31.3374 69.2785 31.5983 69.2739 31.9629V32.0757C69.2739 32.4858 69.3343 32.7798 69.4551 32.9575C69.5781 33.1353 69.7718 33.2241 70.0361 33.2241C70.5033 33.2241 70.7368 32.839 70.7368 32.0688C70.7368 31.6929 70.6787 31.4115 70.5625 31.2246C70.4486 31.0355 70.2686 30.9409 70.0225 30.9409Z" fill="#AEC4DB"/>
<path d="M75.3271 32.8652C75.3271 33.2572 75.1904 33.5557 74.917 33.7607C74.6458 33.9658 74.2391 34.0684 73.6968 34.0684C73.4188 34.0684 73.1818 34.049 72.9858 34.0103C72.7899 33.9738 72.6064 33.9191 72.4355 33.8462V32.9849C72.6292 33.076 72.8468 33.1523 73.0884 33.2139C73.3322 33.2754 73.5464 33.3062 73.731 33.3062C74.1092 33.3062 74.2983 33.1968 74.2983 32.978C74.2983 32.896 74.2733 32.8299 74.2231 32.7798C74.173 32.7274 74.0864 32.6693 73.9634 32.6055C73.8403 32.5394 73.6763 32.4631 73.4712 32.3765C73.1772 32.2534 72.9608 32.1395 72.8218 32.0347C72.6851 31.9299 72.5848 31.8102 72.521 31.6758C72.4595 31.5391 72.4287 31.3716 72.4287 31.1733C72.4287 30.8338 72.5597 30.5718 72.8218 30.3872C73.0861 30.2004 73.4598 30.1069 73.9429 30.1069C74.4032 30.1069 74.8509 30.2072 75.2861 30.4077L74.9717 31.1597C74.7803 31.0776 74.6014 31.0104 74.4351 30.958C74.2687 30.9056 74.099 30.8794 73.9258 30.8794C73.6182 30.8794 73.4644 30.9626 73.4644 31.1289C73.4644 31.2223 73.5133 31.3032 73.6113 31.3716C73.7116 31.4399 73.9292 31.5413 74.2642 31.6758C74.5627 31.7965 74.7814 31.9093 74.9204 32.0142C75.0594 32.119 75.1619 32.2397 75.228 32.3765C75.2941 32.5132 75.3271 32.6761 75.3271 32.8652Z" fill="#AEC4DB"/>
<path d="M75.9937 33.5112C75.9937 33.3198 76.0449 33.1751 76.1475 33.0771C76.25 32.9792 76.3993 32.9302 76.5952 32.9302C76.7843 32.9302 76.9302 32.9803 77.0327 33.0806C77.1375 33.1808 77.1899 33.3244 77.1899 33.5112C77.1899 33.6912 77.1375 33.8337 77.0327 33.9385C76.9279 34.041 76.7821 34.0923 76.5952 34.0923C76.4038 34.0923 76.2557 34.0422 76.1509 33.9419C76.0461 33.8394 75.9937 33.6958 75.9937 33.5112ZM75.9937 30.688C75.9937 30.4966 76.0449 30.3519 76.1475 30.2539C76.25 30.1559 76.3993 30.1069 76.5952 30.1069C76.7843 30.1069 76.9302 30.1571 77.0327 30.2573C77.1375 30.3576 77.1899 30.5011 77.1899 30.688C77.1899 30.8726 77.1364 31.0161 77.0293 31.1187C76.9245 31.2189 76.7798 31.269 76.5952 31.269C76.4038 31.269 76.2557 31.2189 76.1509 31.1187C76.0461 31.0184 75.9937 30.8748 75.9937 30.688Z" fill="#AEC4DB"/>
<path d="M80.4473 29.0029L78.5845 34H77.6377L79.5005 29.0029H80.4473Z" fill="#AEC4DB"/>
<path d="M83.3389 29.0029L81.4761 34H80.5293L82.3921 29.0029H83.3389Z" fill="#AEC4DB"/>
<path d="M86.5859 32.8652C86.5859 33.2572 86.4492 33.5557 86.1758 33.7607C85.9046 33.9658 85.4979 34.0684 84.9556 34.0684C84.6776 34.0684 84.4406 34.049 84.2446 34.0103C84.0487 33.9738 83.8652 33.9191 83.6943 33.8462V32.9849C83.888 33.076 84.1056 33.1523 84.3472 33.2139C84.591 33.2754 84.8052 33.3062 84.9897 33.3062C85.368 33.3062 85.5571 33.1968 85.5571 32.978C85.5571 32.896 85.5321 32.8299 85.4819 32.7798C85.4318 32.7274 85.3452 32.6693 85.2222 32.6055C85.0991 32.5394 84.9351 32.4631 84.73 32.3765C84.436 32.2534 84.2196 32.1395 84.0806 32.0347C83.9438 31.9299 83.8436 31.8102 83.7798 31.6758C83.7183 31.5391 83.6875 31.3716 83.6875 31.1733C83.6875 30.8338 83.8185 30.5718 84.0806 30.3872C84.3449 30.2004 84.7186 30.1069 85.2017 30.1069C85.6619 30.1069 86.1097 30.2072 86.5449 30.4077L86.2305 31.1597C86.0391 31.0776 85.8602 31.0104 85.6938 30.958C85.5275 30.9056 85.3577 30.8794 85.1846 30.8794C84.877 30.8794 84.7231 30.9626 84.7231 31.1289C84.7231 31.2223 84.7721 31.3032 84.8701 31.3716C84.9704 31.4399 85.188 31.5413 85.5229 31.6758C85.8215 31.7965 86.0402 31.9093 86.1792 32.0142C86.3182 32.119 86.4207 32.2397 86.4868 32.3765C86.5529 32.5132 86.5859 32.6761 86.5859 32.8652Z" fill="#AEC4DB"/>
<path d="M89.0093 33.2378C89.1916 33.2378 89.4103 33.1979 89.6655 33.1182V33.894C89.4058 34.0103 89.0868 34.0684 88.7085 34.0684C88.2915 34.0684 87.9873 33.9635 87.7959 33.7539C87.6068 33.542 87.5122 33.2253 87.5122 32.8037V30.9614H87.0132V30.5205L87.5874 30.1719L87.8882 29.3652H88.5547V30.1787H89.6245V30.9614H88.5547V32.8037C88.5547 32.9518 88.5957 33.0612 88.6777 33.1318C88.762 33.2025 88.8726 33.2378 89.0093 33.2378Z" fill="#AEC4DB"/>
<path d="M92.8682 34L92.6665 33.4805H92.6392C92.4637 33.7015 92.2826 33.8553 92.0957 33.9419C91.9111 34.0262 91.6696 34.0684 91.3711 34.0684C91.0042 34.0684 90.7148 33.9635 90.5029 33.7539C90.2933 33.5443 90.1885 33.2458 90.1885 32.8584C90.1885 32.4528 90.3298 32.1543 90.6123 31.9629C90.8971 31.7692 91.3255 31.6621 91.8975 31.6416L92.5605 31.6211V31.4536C92.5605 31.0662 92.3623 30.8726 91.9658 30.8726C91.6605 30.8726 91.3016 30.9648 90.8892 31.1494L90.5439 30.4453C90.9837 30.2152 91.4714 30.1001 92.0068 30.1001C92.5195 30.1001 92.9126 30.2118 93.186 30.4351C93.4595 30.6584 93.5962 30.9979 93.5962 31.4536V34H92.8682ZM92.5605 32.2295L92.1572 32.2432C91.8542 32.2523 91.6286 32.307 91.4805 32.4072C91.3324 32.5075 91.2583 32.6602 91.2583 32.8652C91.2583 33.1592 91.4269 33.3062 91.7642 33.3062C92.0057 33.3062 92.1982 33.2367 92.3418 33.0977C92.4876 32.9587 92.5605 32.7741 92.5605 32.5439V32.2295Z" fill="#AEC4DB"/>
<path d="M96.2827 33.2378C96.465 33.2378 96.6838 33.1979 96.939 33.1182V33.894C96.6792 34.0103 96.3602 34.0684 95.9819 34.0684C95.5649 34.0684 95.2607 33.9635 95.0693 33.7539C94.8802 33.542 94.7856 33.2253 94.7856 32.8037V30.9614H94.2866V30.5205L94.8608 30.1719L95.1616 29.3652H95.8281V30.1787H96.8979V30.9614H95.8281V32.8037C95.8281 32.9518 95.8691 33.0612 95.9512 33.1318C96.0355 33.2025 96.146 33.2378 96.2827 33.2378Z" fill="#AEC4DB"/>
<path d="M99.2666 34.0684C98.0771 34.0684 97.4824 33.4155 97.4824 32.1099C97.4824 31.4604 97.6442 30.9648 97.9678 30.623C98.2913 30.279 98.755 30.1069 99.3589 30.1069C99.8009 30.1069 100.197 30.1935 100.548 30.3667L100.241 31.1733C100.077 31.1073 99.924 31.0537 99.7827 31.0127C99.6414 30.9694 99.5002 30.9478 99.3589 30.9478C98.8166 30.9478 98.5454 31.3328 98.5454 32.103C98.5454 32.8504 98.8166 33.2241 99.3589 33.2241C99.5594 33.2241 99.7451 33.1979 99.916 33.1455C100.087 33.0908 100.258 33.0065 100.429 32.8926V33.7847C100.26 33.8918 100.089 33.9658 99.916 34.0068C99.7451 34.0479 99.5286 34.0684 99.2666 34.0684Z" fill="#AEC4DB"/>
<path d="M102.148 32.0825C102.148 32.4608 102.209 32.7467 102.333 32.9404C102.458 33.1341 102.661 33.231 102.941 33.231C103.219 33.231 103.418 33.1353 103.539 32.9438C103.662 32.7502 103.724 32.4631 103.724 32.0825C103.724 31.7043 103.662 31.4206 103.539 31.2314C103.416 31.0423 103.214 30.9478 102.934 30.9478C102.656 30.9478 102.456 31.0423 102.333 31.2314C102.209 31.4183 102.148 31.702 102.148 32.0825ZM104.79 32.0825C104.79 32.7046 104.626 33.1911 104.298 33.542C103.97 33.8929 103.513 34.0684 102.927 34.0684C102.56 34.0684 102.237 33.9886 101.957 33.8291C101.676 33.6673 101.461 33.436 101.311 33.1353C101.16 32.8345 101.085 32.4836 101.085 32.0825C101.085 31.4582 101.248 30.9728 101.574 30.6265C101.9 30.2801 102.358 30.1069 102.948 30.1069C103.315 30.1069 103.638 30.1867 103.918 30.3462C104.199 30.5057 104.414 30.7347 104.564 31.0332C104.715 31.3317 104.79 31.6815 104.79 32.0825Z" fill="#AEC4DB"/>
<path d="M108.358 34L108.218 33.5112H108.164C108.052 33.689 107.894 33.8268 107.688 33.9248C107.483 34.0205 107.25 34.0684 106.988 34.0684C106.539 34.0684 106.201 33.9487 105.973 33.7095C105.745 33.4679 105.631 33.1216 105.631 32.6704V30.1787H106.673V32.4106C106.673 32.6864 106.722 32.8937 106.82 33.0327C106.918 33.1694 107.074 33.2378 107.289 33.2378C107.58 33.2378 107.791 33.141 107.921 32.9473C108.051 32.7513 108.116 32.4277 108.116 31.9766V30.1787H109.158V34H108.358Z" fill="#AEC4DB"/>
<path d="M113.779 34H112.737V31.7681C112.737 31.4924 112.688 31.2861 112.59 31.1494C112.492 31.0104 112.336 30.9409 112.122 30.9409C111.83 30.9409 111.619 31.0389 111.489 31.2349C111.359 31.4285 111.294 31.751 111.294 32.2021V34H110.252V30.1787H111.048L111.188 30.6675H111.247C111.363 30.4829 111.522 30.3439 111.725 30.2505C111.93 30.1548 112.163 30.1069 112.422 30.1069C112.867 30.1069 113.204 30.2277 113.434 30.4692C113.664 30.7085 113.779 31.0549 113.779 31.5083V34Z" fill="#AEC4DB"/>
<path d="M116.462 33.2378C116.645 33.2378 116.863 33.1979 117.119 33.1182V33.894C116.859 34.0103 116.54 34.0684 116.162 34.0684C115.745 34.0684 115.44 33.9635 115.249 33.7539C115.06 33.542 114.965 33.2253 114.965 32.8037V30.9614H114.466V30.5205L115.041 30.1719L115.341 29.3652H116.008V30.1787H117.078V30.9614H116.008V32.8037C116.008 32.9518 116.049 33.0612 116.131 33.1318C116.215 33.2025 116.326 33.2378 116.462 33.2378Z" fill="#AEC4DB"/>
<path d="M119.477 30.8486C119.256 30.8486 119.083 30.9193 118.958 31.0605C118.832 31.1995 118.76 31.3978 118.742 31.6553H120.205C120.201 31.3978 120.133 31.1995 120.003 31.0605C119.874 30.9193 119.698 30.8486 119.477 30.8486ZM119.624 34.0684C119.009 34.0684 118.528 33.8986 118.182 33.5591C117.835 33.2196 117.662 32.7388 117.662 32.1167C117.662 31.4764 117.822 30.9819 118.141 30.6333C118.462 30.2824 118.905 30.1069 119.47 30.1069C120.01 30.1069 120.431 30.2607 120.731 30.5684C121.032 30.876 121.183 31.3009 121.183 31.8433V32.3491H118.718C118.73 32.6453 118.817 32.8766 118.981 33.043C119.146 33.2093 119.376 33.2925 119.672 33.2925C119.902 33.2925 120.12 33.2686 120.325 33.2207C120.53 33.1729 120.744 33.0965 120.967 32.9917V33.7983C120.785 33.8895 120.59 33.9567 120.383 34C120.175 34.0456 119.923 34.0684 119.624 34.0684Z" fill="#AEC4DB"/>
<path d="M124.163 30.1069C124.304 30.1069 124.422 30.1172 124.515 30.1377L124.437 31.1152C124.352 31.0924 124.25 31.0811 124.129 31.0811C123.796 31.0811 123.536 31.1665 123.35 31.3374C123.165 31.5083 123.073 31.7476 123.073 32.0552V34H122.03V30.1787H122.82L122.974 30.8213H123.025C123.143 30.6071 123.303 30.4351 123.503 30.3052C123.706 30.173 123.926 30.1069 124.163 30.1069Z" fill="#AEC4DB"/>
<path d="M125.062 33.5112C125.062 33.3198 125.113 33.1751 125.216 33.0771C125.318 32.9792 125.468 32.9302 125.664 32.9302C125.853 32.9302 125.999 32.9803 126.101 33.0806C126.206 33.1808 126.258 33.3244 126.258 33.5112C126.258 33.6912 126.206 33.8337 126.101 33.9385C125.996 34.041 125.85 34.0923 125.664 34.0923C125.472 34.0923 125.324 34.0422 125.219 33.9419C125.114 33.8394 125.062 33.6958 125.062 33.5112Z" fill="#AEC4DB"/>
<path d="M128.757 34.0684C127.567 34.0684 126.973 33.4155 126.973 32.1099C126.973 31.4604 127.134 30.9648 127.458 30.623C127.782 30.279 128.245 30.1069 128.849 30.1069C129.291 30.1069 129.688 30.1935 130.039 30.3667L129.731 31.1733C129.567 31.1073 129.414 31.0537 129.273 31.0127C129.132 30.9694 128.99 30.9478 128.849 30.9478C128.307 30.9478 128.036 31.3328 128.036 32.103C128.036 32.8504 128.307 33.2241 128.849 33.2241C129.05 33.2241 129.235 33.1979 129.406 33.1455C129.577 33.0908 129.748 33.0065 129.919 32.8926V33.7847C129.75 33.8918 129.579 33.9658 129.406 34.0068C129.235 34.0479 129.019 34.0684 128.757 34.0684Z" fill="#AEC4DB"/>
<path d="M131.638 32.0825C131.638 32.4608 131.7 32.7467 131.823 32.9404C131.948 33.1341 132.151 33.231 132.431 33.231C132.709 33.231 132.909 33.1353 133.029 32.9438C133.152 32.7502 133.214 32.4631 133.214 32.0825C133.214 31.7043 133.152 31.4206 133.029 31.2314C132.906 31.0423 132.705 30.9478 132.424 30.9478C132.146 30.9478 131.946 31.0423 131.823 31.2314C131.7 31.4183 131.638 31.702 131.638 32.0825ZM134.28 32.0825C134.28 32.7046 134.116 33.1911 133.788 33.542C133.46 33.8929 133.003 34.0684 132.417 34.0684C132.051 34.0684 131.727 33.9886 131.447 33.8291C131.167 33.6673 130.951 33.436 130.801 33.1353C130.65 32.8345 130.575 32.4836 130.575 32.0825C130.575 31.4582 130.738 30.9728 131.064 30.6265C131.39 30.2801 131.848 30.1069 132.438 30.1069C132.805 30.1069 133.128 30.1867 133.409 30.3462C133.689 30.5057 133.904 30.7347 134.055 31.0332C134.205 31.3317 134.28 31.6815 134.28 32.0825Z" fill="#AEC4DB"/>
<path d="M138.563 34H137.521V31.7681C137.521 31.4924 137.474 31.2861 137.38 31.1494C137.289 31.0104 137.145 30.9409 136.946 30.9409C136.68 30.9409 136.486 31.0389 136.365 31.2349C136.244 31.4308 136.184 31.7533 136.184 32.2021V34H135.142V30.1787H135.938L136.078 30.6675H136.136C136.239 30.492 136.387 30.3553 136.581 30.2573C136.774 30.1571 136.996 30.1069 137.247 30.1069C137.819 30.1069 138.206 30.2938 138.409 30.6675H138.501C138.604 30.4897 138.754 30.3519 138.953 30.2539C139.153 30.1559 139.379 30.1069 139.629 30.1069C140.062 30.1069 140.389 30.2186 140.61 30.4419C140.834 30.6629 140.945 31.0184 140.945 31.5083V34H139.899V31.7681C139.899 31.4924 139.853 31.2861 139.759 31.1494C139.668 31.0104 139.523 30.9409 139.325 30.9409C139.07 30.9409 138.879 31.0321 138.751 31.2144C138.626 31.3966 138.563 31.686 138.563 32.0825V34Z" fill="#AEC4DB"/>
<path d="M144.329 29.0029L142.466 34H141.52L143.382 29.0029H144.329Z" fill="#AEC4DB"/>
<path d="M148.25 32.9644H147.648V34H146.616V32.9644H144.483V32.2295L146.674 29.0029H147.648V32.144H148.25V32.9644ZM146.616 32.144V31.2964C146.616 31.1551 146.621 30.95 146.633 30.6812C146.644 30.4123 146.653 30.2562 146.66 30.2129H146.633C146.549 30.3997 146.447 30.582 146.329 30.7598L145.413 32.144H146.616Z" fill="#AEC4DB"/>
<path d="M152.108 31.5015C152.108 32.3742 151.965 33.0202 151.678 33.4395C151.393 33.8587 150.953 34.0684 150.358 34.0684C149.782 34.0684 149.347 33.8519 149.053 33.4189C148.761 32.986 148.615 32.3468 148.615 31.5015C148.615 30.6196 148.758 29.9702 149.042 29.5532C149.327 29.134 149.766 28.9243 150.358 28.9243C150.935 28.9243 151.37 29.1431 151.664 29.5806C151.96 30.0181 152.108 30.6584 152.108 31.5015ZM149.665 31.5015C149.665 32.1144 149.717 32.5542 149.822 32.8208C149.929 33.0851 150.108 33.2173 150.358 33.2173C150.604 33.2173 150.782 33.0828 150.892 32.814C151.001 32.5451 151.056 32.1076 151.056 31.5015C151.056 30.8885 151 30.4487 150.888 30.1821C150.779 29.9132 150.602 29.7788 150.358 29.7788C150.11 29.7788 149.932 29.9132 149.825 30.1821C149.718 30.4487 149.665 30.8885 149.665 31.5015Z" fill="#AEC4DB"/>
<path d="M156.248 32.9644H155.646V34H154.614V32.9644H152.481V32.2295L154.672 29.0029H155.646V32.144H156.248V32.9644ZM154.614 32.144V31.2964C154.614 31.1551 154.619 30.95 154.631 30.6812C154.642 30.4123 154.651 30.2562 154.658 30.2129H154.631C154.547 30.3997 154.445 30.582 154.327 30.7598L153.411 32.144H154.614Z" fill="#AEC4DB"/>
<path d="M159.218 29.0029L157.355 34H156.408L158.271 29.0029H159.218Z" fill="#AEC4DB"/>
<path d="M81.0898 15.4141C81.0898 15.9297 80.9036 16.3359 80.5312 16.6328C80.1615 16.9297 79.6458 17.0781 78.9844 17.0781C78.375 17.0781 77.8359 16.9635 77.3672 16.7344V15.6094C77.7526 15.7812 78.0781 15.9023 78.3438 15.9727C78.612 16.043 78.8568 16.0781 79.0781 16.0781C79.3438 16.0781 79.5469 16.0273 79.6875 15.9258C79.8307 15.8242 79.9023 15.6732 79.9023 15.4727C79.9023 15.3607 79.8711 15.2617 79.8086 15.1758C79.7461 15.0872 79.6536 15.0026 79.5312 14.9219C79.4115 14.8411 79.1654 14.7122 78.793 14.5352C78.444 14.3711 78.1823 14.2135 78.0078 14.0625C77.8333 13.9115 77.694 13.7357 77.5898 13.5352C77.4857 13.3346 77.4336 13.1003 77.4336 12.832C77.4336 12.3268 77.6042 11.9297 77.9453 11.6406C78.2891 11.3516 78.763 11.207 79.3672 11.207C79.6641 11.207 79.9466 11.2422 80.2148 11.3125C80.4857 11.3828 80.7682 11.4818 81.0625 11.6094L80.6719 12.5508C80.3672 12.4258 80.1146 12.3385 79.9141 12.2891C79.7161 12.2396 79.5208 12.2148 79.3281 12.2148C79.099 12.2148 78.9232 12.2682 78.8008 12.375C78.6784 12.4818 78.6172 12.6211 78.6172 12.793C78.6172 12.8997 78.6419 12.9935 78.6914 13.0742C78.7409 13.1523 78.819 13.2292 78.9258 13.3047C79.0352 13.3776 79.2917 13.5104 79.6953 13.7031C80.2292 13.9583 80.5951 14.2148 80.793 14.4727C80.9909 14.7279 81.0898 15.0417 81.0898 15.4141Z" fill="#AEC4DB"/>
<path d="M83.8711 16.1289C84.0794 16.1289 84.3294 16.0833 84.6211 15.9922V16.8789C84.3242 17.0117 83.9596 17.0781 83.5273 17.0781C83.0508 17.0781 82.7031 16.9583 82.4844 16.7188C82.2682 16.4766 82.1602 16.1146 82.1602 15.6328V13.5273H81.5898V13.0234L82.2461 12.625L82.5898 11.7031H83.3516V12.6328H84.5742V13.5273H83.3516V15.6328C83.3516 15.8021 83.3984 15.9271 83.4922 16.0078C83.5885 16.0885 83.7148 16.1289 83.8711 16.1289Z" fill="#AEC4DB"/>
<path d="M88.2812 17L88.0508 16.4062H88.0195C87.819 16.6589 87.612 16.8346 87.3984 16.9336C87.1875 17.0299 86.9115 17.0781 86.5703 17.0781C86.151 17.0781 85.8203 16.9583 85.5781 16.7188C85.3385 16.4792 85.2188 16.138 85.2188 15.6953C85.2188 15.2318 85.3802 14.8906 85.7031 14.6719C86.0286 14.4505 86.5182 14.3281 87.1719 14.3047L87.9297 14.2812V14.0898C87.9297 13.6471 87.7031 13.4258 87.25 13.4258C86.901 13.4258 86.4909 13.5312 86.0195 13.7422L85.625 12.9375C86.1276 12.6745 86.6849 12.543 87.2969 12.543C87.8828 12.543 88.332 12.6706 88.6445 12.9258C88.957 13.181 89.1133 13.569 89.1133 14.0898V17H88.2812ZM87.9297 14.9766L87.4688 14.9922C87.1224 15.0026 86.8646 15.0651 86.6953 15.1797C86.526 15.2943 86.4414 15.4688 86.4414 15.7031C86.4414 16.0391 86.6341 16.207 87.0195 16.207C87.2956 16.207 87.5156 16.1276 87.6797 15.9688C87.8464 15.8099 87.9297 15.599 87.9297 15.3359V14.9766Z" fill="#AEC4DB"/>
<path d="M92.1836 16.1289C92.3919 16.1289 92.6419 16.0833 92.9336 15.9922V16.8789C92.6367 17.0117 92.2721 17.0781 91.8398 17.0781C91.3633 17.0781 91.0156 16.9583 90.7969 16.7188C90.5807 16.4766 90.4727 16.1146 90.4727 15.6328V13.5273H89.9023V13.0234L90.5586 12.625L90.9023 11.7031H91.6641V12.6328H92.8867V13.5273H91.6641V15.6328C91.6641 15.8021 91.7109 15.9271 91.8047 16.0078C91.901 16.0885 92.0273 16.1289 92.1836 16.1289Z" fill="#AEC4DB"/>
<path d="M95.5938 17.0781C94.2344 17.0781 93.5547 16.332 93.5547 14.8398C93.5547 14.0977 93.7396 13.5312 94.1094 13.1406C94.4792 12.7474 95.0091 12.5508 95.6992 12.5508C96.2044 12.5508 96.6576 12.6497 97.0586 12.8477L96.707 13.7695C96.5195 13.694 96.3451 13.6328 96.1836 13.5859C96.0221 13.5365 95.8607 13.5117 95.6992 13.5117C95.0794 13.5117 94.7695 13.9518 94.7695 14.832C94.7695 15.6862 95.0794 16.1133 95.6992 16.1133C95.9284 16.1133 96.1406 16.0833 96.3359 16.0234C96.5312 15.9609 96.7266 15.8646 96.9219 15.7344V16.7539C96.7292 16.8763 96.5339 16.9609 96.3359 17.0078C96.1406 17.0547 95.8932 17.0781 95.5938 17.0781Z" fill="#AEC4DB"/>
<path d="M98.8867 14.8086C98.8867 15.2409 98.957 15.5677 99.0977 15.7891C99.2409 16.0104 99.4727 16.1211 99.793 16.1211C100.111 16.1211 100.339 16.0117 100.477 15.793C100.617 15.5716 100.688 15.2435 100.688 14.8086C100.688 14.3763 100.617 14.0521 100.477 13.8359C100.336 13.6198 100.105 13.5117 99.7852 13.5117C99.4674 13.5117 99.2383 13.6198 99.0977 13.8359C98.957 14.0495 98.8867 14.3737 98.8867 14.8086ZM101.906 14.8086C101.906 15.5195 101.719 16.0755 101.344 16.4766C100.969 16.8776 100.447 17.0781 99.7773 17.0781C99.3581 17.0781 98.9883 16.987 98.668 16.8047C98.3477 16.6198 98.1016 16.3555 97.9297 16.0117C97.7578 15.668 97.6719 15.2669 97.6719 14.8086C97.6719 14.0951 97.8581 13.5404 98.2305 13.1445C98.6029 12.7487 99.1263 12.5508 99.8008 12.5508C100.22 12.5508 100.59 12.6419 100.91 12.8242C101.23 13.0065 101.477 13.2682 101.648 13.6094C101.82 13.9505 101.906 14.3503 101.906 14.8086Z" fill="#AEC4DB"/>
<path d="M105.984 17L105.824 16.4414H105.762C105.634 16.6445 105.453 16.8021 105.219 16.9141C104.984 17.0234 104.717 17.0781 104.418 17.0781C103.905 17.0781 103.518 16.9414 103.258 16.668C102.997 16.3919 102.867 15.9961 102.867 15.4805V12.6328H104.059V15.1836C104.059 15.4987 104.115 15.7357 104.227 15.8945C104.339 16.0508 104.517 16.1289 104.762 16.1289C105.095 16.1289 105.336 16.0182 105.484 15.7969C105.633 15.5729 105.707 15.2031 105.707 14.6875V12.6328H106.898V17H105.984Z" fill="#AEC4DB"/>
<path d="M112.18 17H110.988V14.4492C110.988 14.1341 110.932 13.8984 110.82 13.7422C110.708 13.5833 110.53 13.5039 110.285 13.5039C109.952 13.5039 109.711 13.6159 109.562 13.8398C109.414 14.0612 109.34 14.4297 109.34 14.9453V17H108.148V12.6328H109.059L109.219 13.1914H109.285C109.418 12.9805 109.6 12.8216 109.832 12.7148C110.066 12.6055 110.332 12.5508 110.629 12.5508C111.137 12.5508 111.522 12.6888 111.785 12.9648C112.048 13.2383 112.18 13.6341 112.18 14.1523V17Z" fill="#AEC4DB"/>
<path d="M115.246 16.1289C115.454 16.1289 115.704 16.0833 115.996 15.9922V16.8789C115.699 17.0117 115.335 17.0781 114.902 17.0781C114.426 17.0781 114.078 16.9583 113.859 16.7188C113.643 16.4766 113.535 16.1146 113.535 15.6328V13.5273H112.965V13.0234L113.621 12.625L113.965 11.7031H114.727V12.6328H115.949V13.5273H114.727V15.6328C114.727 15.8021 114.773 15.9271 114.867 16.0078C114.964 16.0885 115.09 16.1289 115.246 16.1289Z" fill="#AEC4DB"/>
<path d="M118.691 13.3984C118.439 13.3984 118.241 13.4792 118.098 13.6406C117.954 13.7995 117.872 14.026 117.852 14.3203H119.523C119.518 14.026 119.441 13.7995 119.293 13.6406C119.145 13.4792 118.944 13.3984 118.691 13.3984ZM118.859 17.0781C118.156 17.0781 117.607 16.8841 117.211 16.4961C116.815 16.1081 116.617 15.5586 116.617 14.8477C116.617 14.1159 116.799 13.5508 117.164 13.1523C117.531 12.7513 118.038 12.5508 118.684 12.5508C119.301 12.5508 119.781 12.7266 120.125 13.0781C120.469 13.4297 120.641 13.9154 120.641 14.5352V15.1133H117.824C117.837 15.4518 117.938 15.7161 118.125 15.9062C118.312 16.0964 118.576 16.1914 118.914 16.1914C119.177 16.1914 119.426 16.1641 119.66 16.1094C119.895 16.0547 120.139 15.9674 120.395 15.8477V16.7695C120.186 16.8737 119.964 16.9505 119.727 17C119.49 17.0521 119.201 17.0781 118.859 17.0781Z" fill="#AEC4DB"/>
<path d="M124.047 12.5508C124.208 12.5508 124.342 12.5625 124.449 12.5859L124.359 13.7031C124.263 13.6771 124.146 13.6641 124.008 13.6641C123.628 13.6641 123.331 13.7617 123.117 13.957C122.906 14.1523 122.801 14.4258 122.801 14.7773V17H121.609V12.6328H122.512L122.688 13.3672H122.746C122.882 13.1224 123.064 12.9258 123.293 12.7773C123.525 12.6263 123.776 12.5508 124.047 12.5508Z" fill="#AEC4DB"/>
<path d="M72.5455 15.222L70.1636 14.7684C70.069 15.264 69.7324 15.6762 69.2783 15.8829L70.2827 18.0356C71.4564 17.5104 72.2991 16.4626 72.5455 15.222Z" fill="#76C349"/>
<path d="M70.7598 18.4861L69.3526 15.8466C69.1324 15.9611 68.8811 16.026 68.6143 16.026C67.7439 16.026 67.0382 15.3353 67.0382 14.4832C67.0382 13.6312 67.7439 12.9405 68.6143 12.9405H68.6212L68.6212 9.9491C66.7025 9.9491 64.9834 11.1103 64.3017 12.8667C63.62 14.6232 64.1176 16.6094 65.5519 17.8575C66.9863 19.1055 69.0589 19.3558 70.7598 18.4861Z" fill="#0078D3"/>
<path d="M69.832 13.5036C70.0559 13.77 70.1904 14.1113 70.1904 14.4832C70.1904 14.627 70.1702 14.7662 70.1326 14.8983L73.4448 15.827C73.8369 14.4858 73.6269 13.0518 72.8815 11.8787L69.832 13.5036Z" fill="#D6E142"/>
<path d="M68.6211 9L68.6211 12.9405C69.3373 12.9435 69.9407 13.4141 70.1292 14.0565L74 12.9835C73.3188 10.6268 71.1221 9 68.6211 9Z" fill="#12BDEF"/>
<rect y="42" width="366" height="278" fill="#D9E4EE"/>
<path d="M128.684 211.369H113.215V238H86.6719V211.369H31.8281V192.473L88.166 109.504H113.215V190.275H128.684V211.369ZM86.6719 190.275V168.479C86.6719 164.846 86.8184 159.572 87.1113 152.658C87.4043 145.744 87.6387 141.73 87.8145 140.617H87.1113C84.9434 145.422 82.3359 150.109 79.2891 154.68L55.7344 190.275H86.6719Z" fill="#C3D4E4"/>
<path d="M227.912 173.752C227.912 196.193 224.221 212.805 216.838 223.586C209.514 234.367 198.205 239.758 182.912 239.758C168.088 239.758 156.896 234.191 149.338 223.059C141.838 211.926 138.088 195.49 138.088 173.752C138.088 151.076 141.75 134.377 149.074 123.654C156.398 112.873 167.678 107.482 182.912 107.482C197.736 107.482 208.928 113.107 216.486 124.357C224.104 135.607 227.912 152.072 227.912 173.752ZM165.07 173.752C165.07 189.514 166.418 200.822 169.113 207.678C171.867 214.475 176.467 217.873 182.912 217.873C189.24 217.873 193.811 214.416 196.623 207.502C199.436 200.588 200.842 189.338 200.842 173.752C200.842 157.99 199.406 146.682 196.535 139.826C193.723 132.912 189.182 129.455 182.912 129.455C176.525 129.455 171.955 132.912 169.201 139.826C166.447 146.682 165.07 157.99 165.07 173.752Z" fill="#C3D4E4"/>
<path d="M334.348 211.369H318.879V238H292.336V211.369H237.492V192.473L293.83 109.504H318.879V190.275H334.348V211.369ZM292.336 190.275V168.479C292.336 164.846 292.482 159.572 292.775 152.658C293.068 145.744 293.303 141.73 293.479 140.617H292.775C290.607 145.422 288 150.109 284.953 154.68L261.398 190.275H292.336Z" fill="#C3D4E4"/>
<rect width="64" height="36" rx="18" transform="matrix(-1 0 0 1 452.255 23.7548)" fill="white"/>
<rect width="63.2364" height="36" rx="18" transform="matrix(-0.707107 -0.707107 -0.707107 0.707107 455.171 52.7149)" fill="white"/>
<rect width="55.5193" height="36" rx="18" transform="matrix(-0.258819 0.965926 0.965926 0.258819 408.513 10.4311)" fill="white"/>
<circle r="5.5" transform="matrix(-1 0 0 1 411.755 78.5)" fill="white"/>
<circle r="4" transform="matrix(-1 0 0 1 407.255 92)" fill="white"/>
<path d="M403.233 44.0184H400.85L400.352 34.4774H403.731L403.233 44.0184ZM400.313 47.3583C400.313 46.8114 400.46 46.398 400.753 46.118C401.046 45.8381 401.472 45.6981 402.032 45.6981C402.572 45.6981 402.989 45.8413 403.282 46.1278C403.581 46.4143 403.731 46.8244 403.731 47.3583C403.731 47.8726 403.581 48.2795 403.282 48.579C402.983 48.8719 402.566 49.0184 402.032 49.0184C401.485 49.0184 401.062 48.8752 400.762 48.5887C400.463 48.2958 400.313 47.8856 400.313 47.3583Z" fill="#064685"/>
<path d="M407.589 44.0184V43.2958C407.589 42.6708 407.722 42.1272 407.989 41.6649C408.256 41.2027 408.744 40.7111 409.454 40.1903C410.137 39.702 410.587 39.3049 410.802 38.9989C411.023 38.6929 411.134 38.3511 411.134 37.9735C411.134 37.5503 410.977 37.2281 410.665 37.0067C410.352 36.7854 409.916 36.6747 409.356 36.6747C408.38 36.6747 407.266 36.9937 406.016 37.6317L404.952 35.493C406.404 34.6792 407.943 34.2723 409.571 34.2723C410.912 34.2723 411.977 34.5946 412.764 35.2391C413.559 35.8837 413.956 36.743 413.956 37.8173C413.956 38.5334 413.793 39.1519 413.468 39.6727C413.142 40.1936 412.524 40.7795 411.612 41.4305C410.987 41.8928 410.59 42.2443 410.421 42.4852C410.258 42.7261 410.177 43.0419 410.177 43.4325V44.0184H407.589ZM407.276 47.3583C407.276 46.8114 407.423 46.398 407.716 46.118C408.009 45.8381 408.435 45.6981 408.995 45.6981C409.535 45.6981 409.952 45.8413 410.245 46.1278C410.544 46.4143 410.694 46.8244 410.694 47.3583C410.694 47.8726 410.544 48.2795 410.245 48.579C409.945 48.8719 409.529 49.0184 408.995 49.0184C408.448 49.0184 408.025 48.8752 407.725 48.5887C407.426 48.2958 407.276 47.8856 407.276 47.3583Z" fill="#064685"/>
<path d="M424.2 40.5126L423.741 42.7782H426.26V44.7899H423.36L422.608 48.7548H420.46L421.221 44.7899H419.327L418.585 48.7548H416.485L417.208 44.7899H414.884V42.7782H417.589L418.048 40.5126H415.587V38.4716H418.409L419.161 34.4969H421.3L420.548 38.4716H422.481L423.243 34.4969H425.343L424.581 38.4716H426.925V40.5126H424.2ZM419.708 42.7782H421.622L422.081 40.5126H420.167L419.708 42.7782Z" fill="#064685"/>
<path d="M431.436 44.0184H429.053L428.555 34.4774H431.934L431.436 44.0184ZM428.516 47.3583C428.516 46.8114 428.663 46.398 428.956 46.118C429.249 45.8381 429.675 45.6981 430.235 45.6981C430.775 45.6981 431.192 45.8413 431.485 46.1278C431.785 46.4143 431.934 46.8244 431.934 47.3583C431.934 47.8726 431.785 48.2795 431.485 48.579C431.186 48.8719 430.769 49.0184 430.235 49.0184C429.688 49.0184 429.265 48.8752 428.966 48.5887C428.666 48.2958 428.516 47.8856 428.516 47.3583Z" fill="#064685"/>
<path d="M437.159 44.0184H434.776L434.278 34.4774H437.657L437.159 44.0184ZM434.239 47.3583C434.239 46.8114 434.385 46.398 434.678 46.118C434.971 45.8381 435.398 45.6981 435.958 45.6981C436.498 45.6981 436.915 45.8413 437.208 46.1278C437.507 46.4143 437.657 46.8244 437.657 47.3583C437.657 47.8726 437.507 48.2795 437.208 48.579C436.908 48.8719 436.492 49.0184 435.958 49.0184C435.411 49.0184 434.988 48.8752 434.688 48.5887C434.389 48.2958 434.239 47.8856 434.239 47.3583Z" fill="#064685"/>
<path d="M408.473 107.47C407.209 107.691 405.009 106.908 404.116 105.985C402.373 104.181 396.946 104.76 394.288 108.511C393.484 109.647 393.049 111.116 392.893 112.669C392.54 116.163 393.694 119.63 395.812 122.427C401.504 129.94 399.678 137.928 404.442 139.014C412.288 140.803 421.093 133.235 422.224 123.772C424.889 110.689 414.075 106.488 408.473 107.47Z" fill="#473522"/>
<path d="M416.505 131.207L403.685 135.758L402.527 140.242C401.887 142.719 400.993 146.676 398.952 148.179C398.952 148.179 386.272 160.711 396.621 161.428C406.971 162.145 419.091 146.825 419.091 146.825C416.155 146.093 416.505 131.207 416.505 131.207Z" fill="#FAB27F"/>
<path d="M446.184 217.543L449.441 226.065C449.604 226.481 449.645 226.932 449.572 227.371L448.674 232.602C448.576 233.16 448.298 233.667 447.874 234.04L444.256 237.232C443.664 236.384 443.702 235.245 444.35 234.439L445.482 230.832C445.482 230.832 444.577 227.373 444.529 228.057L444.228 232.316C444.194 232.782 443.831 233.157 443.368 233.203C442.834 233.256 442.361 232.86 442.318 232.325L441.837 226.327L442.011 217.962L446.184 217.543Z" fill="#FAB27F"/>
<path d="M390.713 311.289C391.594 313.169 392.051 315.22 392.051 317.295V318.525C392.051 318.885 391.795 319.194 391.441 319.258C390.121 319.497 374.538 319.484 371.072 320.014C367.606 320.544 363.229 319.67 363.229 317.435C376.544 313.496 380.476 311.289 380.476 311.289H390.713Z" fill="#041329"/>
<path d="M370.342 319.149C373.464 318.672 388.196 318.338 392.051 318.101V318.525C392.051 318.885 391.795 319.194 391.441 319.258C390.121 319.497 374.538 319.484 371.072 320.014C367.97 320.489 364.14 319.837 363.37 318.092C364.821 319.176 367.822 319.534 370.342 319.149Z" fill="#041329"/>
<path d="M395.672 202.966L394.392 209.008L392.219 219.206L384.984 252.152L384.758 258.62L380.009 310.74C380.009 310.74 381.585 313.674 386.36 314.553C391.135 315.432 393.684 314.111 393.684 314.111L401.228 269.649L401.413 259.893L419.21 207.351L395.672 202.966Z" fill="#062148"/>
<path d="M406.069 218.629L396.059 258.129C396.059 258.129 397.317 310.063 386.36 314.553C391.135 315.432 393.684 314.111 393.684 314.111L401.228 269.649L401.413 259.893L419.21 207.351L406.069 218.629Z" fill="#041329"/>
<path d="M428.203 310.528C429.027 313.42 428.302 315.603 428.193 319.429C428.12 321.965 428.564 325.1 434.477 324.023C439.948 323.026 439.077 319.035 438.914 318.479C438.75 317.921 436.644 311.699 436.644 311.699L428.203 310.528Z" fill="#041329"/>
<path d="M434.376 322.655C436.211 322.32 437.692 321.675 438.856 320.946C438.448 322.179 437.32 323.505 434.477 324.023C431.052 324.647 429.463 323.856 428.746 322.589C430.144 323 432.013 323.085 434.376 322.655Z" fill="#041329"/>
<path d="M398.401 204.28L399.654 215.055C399.898 217.151 401.083 219.021 402.87 220.133C403.942 220.8 404.703 221.87 404.982 223.103L415.508 263.842L426.96 315.352C426.96 315.352 428.141 315.948 433.057 315.229C437.972 314.509 438.183 312.829 438.183 312.829L435.838 289.613C435.139 283.631 433.899 275.097 432.131 269.339L430.15 262.882L429.34 242.526C429.197 238.092 428.242 232.052 427.9 227.628L427.505 222.512C427.432 221.563 427.544 220.61 427.835 219.705C428.722 216.947 429.035 214.036 428.753 211.151L427.964 203.072L398.401 204.28Z" fill="#062148"/>
<path d="M427.312 263.093C426.972 241.252 421.814 220.319 421.814 220.319C421.814 220.319 409.238 220.319 408.695 208.846L427.78 203.079L427.964 203.072L428.753 211.151C429.035 214.036 428.722 216.947 427.835 219.705C427.543 220.61 427.432 221.563 427.505 222.512L427.9 227.628C428.242 232.052 429.197 238.092 429.34 242.526L430.15 262.882L432.131 269.339C433.898 275.097 435.139 283.631 435.838 289.613L438.183 312.829C438.183 312.829 434.838 280.368 427.312 263.093Z" fill="#041329"/>
<path d="M420.32 208.663C420.66 212.35 421.429 217.683 421.429 217.683C421.429 217.683 413.981 218.458 411.974 211.823C409.968 205.188 420.32 208.663 420.32 208.663Z" fill="#3C3C3B"/>
<path d="M386.813 161.605L379.724 184.647L363.782 185.96L360.783 191.683C360.783 191.683 378.574 196.52 383.654 194.397C388.735 192.274 396.904 169.323 396.904 169.323L386.813 161.605Z" fill="#F5AB79"/>
<path d="M348.437 188.857L351.885 188.555C351.993 188.546 352.075 188.455 352.071 188.346C352.069 188.259 352.012 188.183 351.929 188.156L346.26 186.356C345.764 186.216 345.463 185.711 345.578 185.207L345.719 184.589L345.435 184.402C345.009 184.121 344.875 183.557 345.127 183.114C345.339 182.74 345.772 182.551 346.19 182.651L353.398 184.212C353.492 184.233 353.589 184.183 353.628 184.094L353.645 184.054C353.685 183.962 353.652 183.855 353.569 183.801L347.825 182.252C347.356 182.125 347.068 181.651 347.172 181.175C347.273 180.709 347.713 180.4 348.184 180.464L358.116 182.659C358.116 182.659 358.63 182.262 358.707 181.849C358.786 181.418 358.724 180.974 358.529 180.582L357.684 178.885C357.537 178.394 357.664 177.861 358.017 177.49C358.274 177.221 358.72 177.289 358.885 177.623L361.154 180.327L363.205 184.535L365.215 189.493L360.783 191.683L358.892 191.899C356.562 192.163 356.493 191.681 354.291 190.874L348.435 190.349C348.117 190.321 347.851 190.092 347.775 189.78C347.668 189.335 347.981 188.897 348.437 188.857Z" fill="#F5AB79"/>
<path d="M428.555 149.235L419.091 146.825C419.091 146.825 410.723 156.899 400.768 155.511C397.943 155.117 396.538 150.566 398.952 148.179C398.539 148.419 396.301 149.093 393.658 150.098C390.959 151.124 387.765 155.398 386.813 161.605L390.793 166.919C390.575 169.587 390.628 172.269 390.959 174.925C391.557 179.726 392.462 187.542 392.343 189.996C391.887 199.423 392.322 212.164 393.356 213.968C394.841 216.56 407.892 222.638 429.703 217.711C430.117 196.669 429.929 174.611 429.929 174.611L438.158 165.911C436.646 153.422 432.314 150.295 428.555 149.235Z" fill="#064685"/>
<path d="M442.725 191.133L438.159 165.91C436.384 168.344 432.358 171.125 427.799 172.787C428.689 180.832 433.875 189.31 434.739 195C435.147 197.688 435.588 199.423 436.543 203.29C437.299 206.355 441.654 214.586 441.969 219.967L446.543 218.898C446.543 218.898 446.633 209.545 445.719 202.536C444.811 195.528 442.725 191.133 442.725 191.133Z" fill="#FAB27F"/>
<path d="M398.952 148.18L398.957 148.175C398.958 148.175 398.959 148.174 398.96 148.174C398.957 148.176 398.954 148.178 398.952 148.18Z" fill="#0C9C95"/>
<path d="M400.351 148.527C399.776 148.527 399.287 148.425 398.952 148.179C398.954 148.177 398.956 148.176 398.959 148.174C399.214 148.024 399.459 147.808 399.695 147.55C401.216 146.077 401.971 142.394 402.527 140.242L403.686 135.758L413.241 134.432C413.236 134.506 412.766 142.47 406.626 146.537C405.658 147.179 402.442 148.527 400.351 148.527Z" fill="#E6A173"/>
<path d="M413.908 127.37C413.953 121.287 410.931 122.769 409.793 120.44C407.163 115.056 402.404 120.035 396.242 121.16C396.118 121.606 396.295 130.354 396.513 131.662C397.966 140.417 397.348 141.488 403.229 141.285C409.169 141.08 413.647 138.439 415.423 134.795C415.882 133.854 417.838 129.655 417.838 129.655C416.768 129.534 413.891 129.661 413.908 127.37Z" fill="#FAB27F"/>
<path d="M413.908 127.37C413.908 127.37 414.17 132.289 410.943 135.016C407.717 137.742 404.635 135.427 402.647 134.186C400.658 132.944 396.776 133.3 396.776 133.3C396.776 133.3 396.536 141.119 398.192 142.791C399.847 144.463 406.377 142.622 409.681 141.082C412.985 139.541 416.045 134.359 415.685 129.593C415.325 124.825 413.908 127.37 413.908 127.37Z" fill="#473522"/>
<path d="M396.834 136.056L400.409 135.918C400.862 135.901 401.241 136.254 401.259 136.707C401.276 137.16 400.924 137.541 400.472 137.559L396.897 137.696L396.883 137.694C396.841 137.132 396.813 136.58 396.795 136.066L396.834 136.056Z" fill="#FAB27F"/>
<path d="M416.817 124.732C416.154 125.112 415.254 131.579 415.998 131.756C417.837 132.192 419.251 129.293 419.837 127.328C420.617 124.714 417.993 124.056 416.817 124.732Z" fill="#FAB27F"/>
</svg>
